#!OML:ASF F:\VICON\USERDATA\INSTALL\rory3\rory3.ASF
:FULLY-SPECIFIED
:DEGREES
4025
root -9.24057 18.0273 7.6173 1260.58 56.1977 -544.009
lowerback 13.2917 -4.02819 -1.56443
upperback 2.00398 -5.12081 4.01472
thorax -4.79825 -2.39059 5.98259
lowerneck 6.29007 -21.4575 -13.3087
upperneck 38.5182 -30.4449 8.83231
head 16.798 -13.4205 1.73558
rclavicle -6.83819e-014 6.44062e-014
rhumerus -39.4774 -13.2844 -75.4502
rradius 41.7013
rwrist 0.207632
rhand -15.4928 8.83729
rfingers 7.12502
rthumb 10.6894 -20.8708
lclavicle -6.83819e-014 6.44062e-014
lhumerus -38.05 10.6538 79.8793
lradius 36.2071
lwrist -5.88227
lhand -22.0115 26.1412
lfingers 7.12502
lthumb 4.39766 56.0756
rfemur -9.47047 8.3968 19.7089
rtibia 25.6498
rfoot -16.0896 2.83165
rtoes -0.780902
lfemur -22.0458 6.9847 -19.9179
ltibia 43.2361
lfoot -11.0885 1.68315
ltoes -11.5109
4026
root -9.28422 18.0285 7.69099 1260.77 55.8553 -543.747
lowerback 13.2989 -4.18746 -1.46941
upperback 1.98055 -5.30562 4.13709
thorax -4.80338 -2.48023 6.09047
lowerneck 6.18713 -21.3396 -13.4162
upperneck 38.5892 -30.2557 8.78343
head 16.8358 -13.3455 1.75413
rclavicle -3.22031e-014 9.54166e-015
rhumerus -39.5968 -12.9446 -75.3281
rradius 42.0313
rwrist -0.274543
rhand -15.6982 8.56359
rfingers 7.12502
rthumb 10.4913 -21.1546
lclavicle -3.22031e-014 9.54166e-015
lhumerus -38.1279 10.6107 80.2235
lradius 36.5826
lwrist -5.81587
lhand -21.6556 25.8662
lfingers 7.12502
lthumb 4.74135 55.7932
rfemur -9.76806 8.22974 19.9609
rtibia 25.8368
rfoot -15.996 2.72856
rtoes 0.10118
lfemur -21.73 7.12368 -19.9374
ltibia 44.4312
lfoot -11.2188 0.809319
ltoes -9.70315
4027
root -9.32572 18.0313 7.76149 1260.84 55.6446 -543.605
lowerback 13.2701 -4.28283 -1.46487
upperback 1.99133 -5.42303 4.2221
thorax -4.75498 -2.53802 6.19328
lowerneck 6.11605 -21.2492 -13.425
upperneck 38.5706 -30.1168 8.777
head 16.8147 -13.2852 1.77579
rclavicle 1.86858e-014 -4.77083e-014
rhumerus -39.6089 -12.742 -75.1162
rradius 42.1326
rwrist -0.619212
rhand -15.8224 8.57012
rfingers 7.12502
rthumb 10.3714 -21.1541
lclavicle 1.86858e-014 -4.77083e-014
lhumerus -38.0683 10.4473 80.5453
lradius 36.9295
lwrist -5.5584
lhand -21.3691 25.6338
lfingers 7.12502
lthumb 5.01793 55.5544
rfemur -10.0774 8.08942 20.1188
rtibia 26.0153
rfoot -15.8696 2.80557
rtoes 0.391674
lfemur -21.2657 7.29609 -20.0631
ltibia 45.5087
lfoot -11.3658 0.439228
ltoes -10.104
4028
root -9.3722 18.0272 7.83895 1260.97 55.3414 -543.564
lowerback 13.1876 -4.35592 -1.46719
upperback 1.93638 -5.51823 4.27687
thorax -4.75124 -2.58481 6.26326
lowerneck 6.14959 -21.1938 -13.4897
upperneck 38.4921 -30.0519 8.8584
head 16.7872 -13.263 1.83331
rclavicle 7.87187e-014 -1.59028e-014
rhumerus -39.6882 -12.9914 -74.7327
rradius 42.1432
rwrist -0.633281
rhand -15.73 8.795
rfingers 7.12502
rthumb 10.4606 -20.9248
lclavicle 7.87187e-014 -1.59028e-014
lhumerus -37.9323 10.0687 80.9215
lradius 37.1949
lwrist -5.30941
lhand -18.8097 24.4418
lfingers 7.12502
lthumb 7.48884 54.2893
rfemur -10.5383 7.85499 20.2294
rtibia 26.1516
rfoot -15.6793 2.75595
rtoes -0.33195
lfemur -20.9104 7.52708 -20.2548
ltibia 46.4634
lfoot -11.5276 0.100537
ltoes -10.9831
4029
root -9.41971 18.0246 7.92266 1261.29 55.0225 -543.37
lowerback 13.1319 -4.46279 -1.49309
upperback 1.79721 -5.65289 4.44609
thorax -4.83234 -2.6462 6.48322
lowerneck 6.24352 -21.0801 -13.8708
upperneck 38.5606 -29.8791 8.86394
head 16.8607 -13.2324 1.9156
rclavicle 1.55052e-014 -1.59028e-015
rhumerus -39.8119 -12.9347 -74.3842
rradius 42.2149
rwrist -0.861684
rhand -15.8372 8.83765
rfingers 7.12502
rthumb 10.3572 -20.8873
lclavicle 1.55052e-014 -1.59028e-015
lhumerus -37.9279 10.053 81.3377
lradius 37.3706
lwrist -5.34428
lhand -16.3188 22.8224
lfingers 7.12502
lthumb 9.89257 52.57
rfemur -11.0946 7.89037 20.4558
rtibia 26.3414
rfoot -15.4258 2.45842
rtoes 0.102574
lfemur -20.6436 7.7754 -20.2926
ltibia 47.2966
lfoot -11.6006 -0.386903
ltoes -9.97995
4030
root -9.46283 18.0267 7.99838 1261.51 54.8009 -543.187
lowerback 13.0893 -4.54936 -1.51788
upperback 1.67998 -5.7584 4.62197
thorax -4.89941 -2.69293 6.70542
lowerneck 6.36062 -20.9548 -14.3128
upperneck 38.6111 -29.6905 8.87532
head 16.9309 -13.2046 2.01251
rclavicle -1.39149e-014 -3.33958e-014
rhumerus -39.9336 -12.6427 -74.0733
rradius 42.2659
rwrist -1.37356
rhand -16.1516 8.71135
rfingers 7.12502
rthumb 10.0539 -21.0285
lclavicle -1.39149e-014 -3.33958e-014
lhumerus -37.9956 10.2709 81.7117
lradius 37.6021
lwrist -5.53264
lhand -18.5382 23.7179
lfingers 7.12502
lthumb 7.75088 53.5558
rfemur -11.5491 7.9551 20.6714
rtibia 26.5827
rfoot -15.3273 2.27923
rtoes 0.473674
lfemur -20.1654 8.02505 -20.3312
ltibia 47.9913
lfoot -11.7476 -0.549158
ltoes -8.37265
4031
root -9.50877 18.0205 8.07055 1261.59 54.5295 -543.107
lowerback 13.0459 -4.59932 -1.46089
upperback 1.63768 -5.81397 4.65834
thorax -4.91554 -2.72 6.71918
lowerneck 6.34512 -20.9235 -14.3232
upperneck 38.5776 -29.6466 8.9047
head 16.9165 -13.1829 2.03452
rclavicle -7.55382e-014 4.45278e-014
rhumerus -40.0369 -12.9486 -73.7092
rradius 42.1977
rwrist -1.47671
rhand -16.2625 8.68375
rfingers 7.12502
rthumb 9.94689 -21.0612
lclavicle -7.55382e-014 4.45278e-014
lhumerus -37.8358 10.005 82.0148
lradius 37.8371
lwrist -5.49097
lhand -20.9753 25.0303
lfingers 7.12502
lthumb 5.39823 54.9416
rfemur -11.9547 7.79923 20.8166
rtibia 26.7751
rfoot -15.1326 2.17431
rtoes -0.781525
lfemur -19.5495 8.31675 -20.5256
ltibia 48.5354
lfoot -11.8789 -0.258302
ltoes -10.4632
4032
root -9.55364 18.015 8.14516 1261.64 54.2925 -543.082
lowerback 13.0212 -4.61482 -1.50812
upperback 1.59966 -5.83954 4.69363
thorax -4.93044 -2.73096 6.78761
lowerneck 6.2722 -20.9181 -14.2241
upperneck 38.5936 -29.6206 8.86968
head 16.9047 -13.155 2.01058
rclavicle -3.1408e-014 1.74931e-014
rhumerus -40.1235 -13.4033 -73.2784
rradius 42.1229
rwrist -1.35856
rhand -16.2374 8.63367
rfingers 7.12502
rthumb 9.97113 -21.1102
lclavicle -3.1408e-014 1.74931e-014
lhumerus -37.6605 9.54382 82.355
lradius 38.1124
lwrist -5.23808
lhand -21.1034 25.0726
lfingers 7.12502
lthumb 5.27451 54.9869
rfemur -12.3602 7.61821 20.9242
rtibia 26.9354
rfoot -14.8624 2.16576
rtoes -1.01588
lfemur -18.8572 8.62583 -20.7537
ltibia 48.882
lfoot -11.8131 0.0339012
ltoes -12.3863
4033
root -9.59418 18.0184 8.21873 1261.73 54.1633 -543.014
lowerback 12.9705 -4.63056 -1.57477
upperback 1.5661 -5.86805 4.74089
thorax -4.92261 -2.7439 6.87719
lowerneck 6.2268 -20.8579 -14.2711
upperneck 38.6511 -29.522 8.84989
head 16.9339 -13.1121 2.02355
rclavicle -5.4467e-014 -1.11319e-014
rhumerus -40.1655 -13.7141 -72.9458
rradius 42.0006
rwrist -1.30454
rhand -16.3973 8.34019
rfingers 7.12502
rthumb 9.81683 -21.411
lclavicle -5.4467e-014 -1.11319e-014
lhumerus -37.5583 9.36203 82.5926
lradius 38.3932
lwrist -5.07533
lhand -21.2929 24.932
lfingers 7.12502
lthumb 5.0915 54.8509
rfemur -12.7196 7.5758 21.0421
rtibia 27.0469
rfoot -14.6357 2.22786
rtoes 0.188736
lfemur -18.0789 8.95101 -20.9141
ltibia 49.0273
lfoot -11.6538 0.24678
ltoes -11.5195
4034
root -9.6322 18.0234 8.28848 1261.63 53.9504 -543.084
lowerback 12.9 -4.65568 -1.68742
upperback 1.59412 -5.91918 4.7405
thorax -4.83598 -2.77101 6.93817
lowerneck 6.17897 -20.8345 -14.2664
upperneck 38.652 -29.4726 8.81613
head 16.925 -13.0907 2.0155
rclavicle 4.01545e-014 -6.20208e-014
rhumerus -40.2273 -14.2002 -72.6192
rradius 41.8458
rwrist -1.20901
rhand -16.419 8.39653
rfingers 7.12502
rthumb 9.79594 -21.3556
lclavicle 4.01545e-014 -6.20208e-014
lhumerus -37.3996 9.20484 82.8215
lradius 38.7143
lwrist -5.00663
lhand -21.3515 24.7088
lfingers 7.12502
lthumb 5.03492 54.629
rfemur -12.9241 7.62154 21.0701
rtibia 27.0777
rfoot -14.3725 2.13195
rtoes 1.35421
lfemur -17.145 9.22539 -21.153
ltibia 48.9942
lfoot -11.5506 0.63363
ltoes -10.9958
4035
root -9.66846 18.0382 8.35177 1261.3 53.7654 -543.455
lowerback 12.7876 -4.67176 -1.96991
upperback 1.6066 -5.98723 4.71899
thorax -4.72489 -2.80637 7.0712
lowerneck 6.05788 -20.8374 -14.2046
upperneck 38.7122 -29.3989 8.58174
head 16.8951 -13.0656 1.91889
rclavicle -9.89948e-014 8.42847e-014
rhumerus -40.2612 -14.6757 -72.2113
rradius 41.5953
rwrist -0.939955
rhand -16.3087 8.73571
rfingers 7.12502
rthumb 9.90237 -21.0114
lclavicle -9.89948e-014 8.42847e-014
lhumerus -37.338 9.43477 83.024
lradius 39.0818
lwrist -5.40403
lhand -20.8411 24.5266
lfingers 7.12502
lthumb 5.52775 54.4345
rfemur -13.1423 7.47592 20.8876
rtibia 27.1474
rfoot -14.2124 2.18684
rtoes 1.70941
lfemur -16.1534 9.41499 -21.586
ltibia 48.7989
lfoot -11.2692 0.728668
ltoes -9.63795
4036
root -9.70799 18.0469 8.42012 1261.3 53.579 -543.482
lowerback 12.7021 -4.74278 -2.08872
upperback 1.56978 -6.0935 4.80474
thorax -4.68043 -2.85804 7.23881
lowerneck 5.96134 -20.7352 -14.4057
upperneck 38.8233 -29.2114 8.4784
head 16.9613 -13.0073 1.9239
rclavicle 7.95139e-014 -3.18055e-014
rhumerus -40.2098 -14.8984 -71.7927
rradius 41.2938
rwrist -0.796886
rhand -16.1126 8.71336
rfingers 7.12502
rthumb 10.0916 -21.0247
lclavicle 7.95139e-014 -3.18055e-014
lhumerus -37.3078 9.86031 83.2402
lradius 39.3633
lwrist -5.96341
lhand -20.5747 24.8603
lfingers 7.12502
lthumb 5.78498 54.7614
rfemur -13.5092 7.23252 20.9353
rtibia 27.3318
rfoot -14.1175 2.28126
rtoes 1.5033
lfemur -15.2013 9.66691 -21.8021
ltibia 48.4748
lfoot -10.8572 0.615227
ltoes -8.51987
4037
root -9.75292 18.0312 8.49512 1261.48 53.2284 -543.308
lowerback 12.6244 -4.86623 -2.06793
upperback 1.53612 -6.24503 4.91747
thorax -4.64203 -2.93273 7.36331
lowerneck 5.94415 -20.6111 -14.6947
upperneck 38.8277 -29.0552 8.58245
head 17.0291 -12.9631 2.02315
rclavicle 4.05521e-014 -5.24792e-014
rhumerus -40.1632 -14.9049 -71.4862
rradius 41.1061
rwrist -1.08252
rhand -16.1169 8.36476
rfingers 7.12502
rthumb 10.0873 -21.3735
lclavicle 4.05521e-014 -5.24792e-014
lhumerus -37.1457 9.86725 83.5012
lradius 39.5802
lwrist -5.88613
lhand -20.922 25.2717
lfingers 7.12502
lthumb 5.44963 55.1816
rfemur -13.9806 7.02119 21.129
rtibia 27.6157
rfoot -13.9159 2.16183
rtoes 1.65486
lfemur -14.1762 9.97739 -21.9137
ltibia 48.0224
lfoot -10.6061 0.875658
ltoes -10.7281
4038
root -9.79558 18.0182 8.5671 1261.36 52.9535 -543.492
lowerback 12.5266 -4.92299 -2.29269
upperback 1.52628 -6.35479 4.92748
thorax -4.55732 -2.9883 7.50557
lowerneck 5.96193 -20.5298 -14.8044
upperneck 38.7944 -28.9584 8.6749
head 17.0362 -12.9283 2.09465
rclavicle -6.71892e-014 -1.59028e-014
rhumerus -40.1654 -14.949 -71.2895
rradius 40.9356
rwrist -1.39544
rhand -16.3686 7.99834
rfingers 7.12502
rthumb 9.84457 -21.7515
lclavicle -6.71892e-014 -1.59028e-014
lhumerus -36.9796 9.76993 83.6837
lradius 39.8602
lwrist -5.64483
lhand -21.2399 25.2844
lfingers 7.12502
lthumb 5.14273 55.202
rfemur -14.4684 6.82926 21.0896
rtibia 27.9701
rfoot -13.7659 2.08766
rtoes 1.479
lfemur -13.0933 10.2909 -22.2571
ltibia 47.4705
lfoot -10.5105 1.324
ltoes -12.5696
4039
root -9.83463 18.0153 8.63564 1261.2 52.7693 -543.704
lowerback 12.4689 -4.93211 -2.59941
upperback 1.49096 -6.41291 4.94324
thorax -4.51828 -3.01552 7.69956
lowerneck 5.94307 -20.4714 -14.753
upperneck 38.7984 -28.8421 8.60621
head 16.9913 -12.877 2.08814
rclavicle -1.21259e-013 -7.95139e-015
rhumerus -40.2331 -15.1695 -71.0305
rradius 40.7075
rwrist -1.4813
rhand -16.5715 7.66835
rfingers 7.12502
rthumb 9.64882 -22.0907
lclavicle -1.21259e-013 -7.95139e-015
lhumerus -36.8952 9.80676 83.8285
lradius 40.1436
lwrist -5.7014
lhand -21.2044 25.0282
lfingers 7.12502
lthumb 5.177 54.9449
rfemur -14.9617 6.64859 21.0205
rtibia 28.388
rfoot -13.7575 2.09944
rtoes 1.18889
lfemur -12.0127 10.5288 -22.6196
ltibia 46.81
lfoot -10.4138 1.74416
ltoes -12.2048
